<?xml version="1.0" encoding="UTF-8"?>
<svg xmlns="http://www.w3.org/2000/svg" width="500" height="500" viewBox="-71.715 0 1143.43 1143.43" fill="none">
  <defs>
    <mask id="logo-mask" maskUnits="userSpaceOnUse" x="0" y="0" width="1000" height="1143.43">
      <path d="M0.000,107.197C0.000,47.994,47.969,0.000,107.143,0.000L598.500,0.000C626.906,0.025,654.140,11.335,674.214,31.444L968.643,325.877C988.751,346.008,1000.032,373.313,1000.000,401.773L1000.000,1036.233C1000.000,1095.436,952.031,1143.430,892.857,1143.430L107.143,1143.430C47.969,1143.430,0.000,1095.436,0.000,1036.233Z" fill="white"/>
    </mask>
    <radialGradient id="grad-orange" cx="0.7363184336182638" cy="0.7805342170628501" r="0.5117203773125844" gradientTransform="matrix(0.886556, -0.462622, 0.462622, 0.886556, -0.277561, 0.429184)">
      <stop offset="0" stop-color="#da121e"/>
      <stop offset="1" stop-color="#ff6920"/>
    </radialGradient>
    <radialGradient id="grad-green" cx="0.5" cy="0.5" r="0.5">
      <stop offset="0" stop-color="rgb(0, 255, 0)"/>
      <stop offset="1" stop-color="rgb(0, 100, 255)"/>
    </radialGradient>
    <radialGradient id="grad-purple" cx="0.5" cy="0.5" r="0.5">
      <stop offset="0" stop-color="rgb(255, 0, 255)"/>
      <stop offset="1" stop-color="rgb(100, 0, 255)"/>
    </radialGradient>
    <pattern id="fill-orange" patternUnits="userSpaceOnUse" x="-703.5888704344144" y="-336.79344578085477" width="1501.031427778925" height="1126.413408276056">
      <rect width="1501.031427778925" height="1126.413408276056" fill="url(#grad-orange)"/>
    </pattern>
  </defs>
  <g mask="url(#logo-mask)">
    <ellipse cx="46.92684345504813" cy="226.41325835717328" rx="750.5157138894625" ry="563.206704138028" fill="url(#fill-orange)"/>
    <ellipse cx="1338.1375352522793" cy="527.398866171551" rx="938.1446423618279" ry="750.9422721840377" fill="url(#grad-green)"/>
    <ellipse cx="148.75279054658358" cy="1229.32485523095" rx="844.3301781256448" ry="657.0744881610337" fill="url(#grad-purple)"/>
  </g>
  <path d="M702.132,533.275L632.286,533.275L632.286,313.879C632.286,289.746,612.518,270.000,588.357,270.000L412.643,270.000C388.482,270.000,368.714,289.746,368.714,313.879L368.714,533.275L298.868,533.275C259.771,533.275,240.004,580.665,267.679,608.309L469.311,809.715C486.443,826.828,514.118,826.828,531.250,809.715L732.882,608.309C760.557,580.665,741.229,533.275,702.132,533.275ZM193.000,972.068C193.000,996.201,212.768,1015.947,236.929,1015.947L764.071,1015.947C788.232,1015.947,808.000,996.201,808.000,972.068C808.000,947.934,788.232,928.189,764.071,928.189L236.929,928.189C212.768,928.189,193.000,947.934,193.000,972.068Z" fill="#ffffff"/>
</svg>
